<svg width="225" height="127" fill="none" xmlns="http://www.w3.org/2000/svg"><path d="M86.082 72.696a3.36 3.36 0 01-2.108-.602 1.961 1.961 0 01-.796-1.644V58.82a.325.325 0 01.367-.365h2.12c.24 0 .353.126.353.364v10.728c0 .476.215.715.657.715.187.007.374-.014.555-.063.253 0 .391.075.404.301l.19 1.569a.324.324 0 01-.17.351.328.328 0 01-.134.037c-.464.153-.95.233-1.438.239zm11.928-1.343a5.967 5.967 0 01-3.787 1.354 5.967 5.967 0 01-3.787-1.353 5.003 5.003 0 01-1.462-3.532c0-1.323.526-2.593 1.462-3.532a5.993 5.993 0 017.573 0 5.078 5.078 0 011.426 3.525c0 1.314-.51 2.578-1.426 3.526v.013zm-5.58-1.656a2.697 2.697 0 003.61 0 2.8 2.8 0 000-3.688 2.698 2.698 0 00-3.61 0 2.8 2.8 0 000 3.688zm18.681-6.437c.24 0 .353.126.353.364v8.997a4.074 4.074 0 01-1.401 3.224 5.32 5.32 0 01-3.673 1.255 5.932 5.932 0 01-3.42-.941 3.768 3.768 0 01-1.654-2.51c0-.25 0-.364.341-.364h2.121a.468.468 0 01.416.289c.138.381.412.698.77.89.437.225.922.337 1.414.327a2.244 2.244 0 001.628-.577 2.136 2.136 0 00.593-1.568v-.79a4.245 4.245 0 01-2.625.815 4.922 4.922 0 01-3.585-1.368 5.003 5.003 0 01-1.419-3.488c0-1.301.509-2.552 1.419-3.488a4.956 4.956 0 013.585-1.355 4.257 4.257 0 012.688.866v-.2a.315.315 0 01.015-.144.33.33 0 01.339-.221l2.095-.012zm-4.897 7.177a2.231 2.231 0 001.729-.74 3.066 3.066 0 000-3.764 2.22 2.22 0 00-1.717-.728 2.283 2.283 0 00-1.754.74 2.65 2.65 0 00-.682 1.883 2.698 2.698 0 00.669 1.87 2.287 2.287 0 001.755.74zm16.143.916a5.994 5.994 0 01-7.573 0 5.089 5.089 0 01-1.427-3.532 5.09 5.09 0 011.427-3.531 6.005 6.005 0 017.573 0 5.078 5.078 0 011.426 3.525 5.078 5.078 0 01-1.426 3.526v.012zm-5.592-1.656a2.531 2.531 0 001.818.69 2.54 2.54 0 001.805-.69 2.84 2.84 0 000-3.689 2.538 2.538 0 00-1.805-.69 2.535 2.535 0 00-1.818.69 2.838 2.838 0 000 3.69zm11.575-8.569a1.838 1.838 0 01-2.411 0 1.517 1.517 0 01-.354-1.705c.082-.19.203-.361.354-.503a1.874 1.874 0 012.411 0 1.516 1.516 0 010 2.208zm.265 11.568a3.41 3.41 0 01-2.108-.602 1.982 1.982 0 01-.783-1.644v-6.825a.33.33 0 01.219-.349.332.332 0 01.147-.015h2.121c.24 0 .353.125.353.364v5.922c0 .477.215.715.644.715.191.007.383-.014.568-.063.252 0 .391.076.404.301l.189 1.569a.324.324 0 01-.169.352.326.326 0 01-.134.037 4.805 4.805 0 01-1.451.238zm9.555-9.736a4.974 4.974 0 013.61 1.355 5.13 5.13 0 011.389 3.507 5.13 5.13 0 01-1.389 3.506 4.924 4.924 0 01-3.61 1.368 4.361 4.361 0 01-2.638-.816v4.53c0 .238-.126.351-.366.351h-2.121a.303.303 0 01-.353-.351V66.122a.65.65 0 00-.443-.715.661.661 0 00-.302-.026h-.416c-.278 0-.417-.1-.417-.3V63.6a.402.402 0 01.291-.414 3.8 3.8 0 011.363-.226 2.332 2.332 0 012.284 1.254 4.263 4.263 0 013.118-1.254zm-1.969 6.737a2.406 2.406 0 001.742.74 2.428 2.428 0 001.742-.74 2.7 2.7 0 00.694-1.92 2.666 2.666 0 00-.694-1.919 2.425 2.425 0 00-2.689-.547 2.4 2.4 0 00-.795.547 2.765 2.765 0 00-.669 1.92 2.8 2.8 0 00.669 1.92zm12.924 2.999a6.11 6.11 0 01-3.243-.778 3.07 3.07 0 01-1.465-2.22c0-.252.089-.377.367-.377h1.855a.48.48 0 01.416.276c.266.677.96 1.016 2.07 1.016.388.018.774-.06 1.124-.226a.733.733 0 00.429-.614c0-.327-.202-.552-.606-.703a6.86 6.86 0 00-1.477-.314 14.118 14.118 0 01-1.767-.313 2.91 2.91 0 01-1.477-.841 2.68 2.68 0 01.543-3.89 5.225 5.225 0 013.055-.802 5.607 5.607 0 012.979.74 2.796 2.796 0 011.388 1.97c0 .25-.114.376-.341.376h-1.868a.39.39 0 01-.379-.226 1.253 1.253 0 00-.656-.665 2.231 2.231 0 00-1.085-.25c-.37-.02-.739.053-1.073.213a.63.63 0 00-.404.577.8.8 0 00.606.74c.484.182.988.308 1.502.376.59.078 1.176.187 1.754.327.566.127 1.08.42 1.477.84a2.37 2.37 0 01.618 1.72c.011.433-.091.862-.297 1.245a2.522 2.522 0 01-.876.937 5.546 5.546 0 01-3.169.866zm17.684-.627a.336.336 0 01-.063.255.34.34 0 01-.227.133c-.461.15-.942.23-1.427.239a2.816 2.816 0 01-2.524-1.092 4.587 4.587 0 01-3.219 1.092 3.934 3.934 0 01-2.953-1.142 4.117 4.117 0 01-1.124-3.024v-4.905c0-.239.114-.364.354-.364h2.12c.24 0 .354.125.354.364v4.529a2.212 2.212 0 00.543 1.543 1.89 1.89 0 001.451.59 2.108 2.108 0 001.515-.552 1.999 1.999 0 00.568-1.493v-4.617c0-.239.113-.364.353-.364h2.146c.24 0 .353.125.353.364v5.91c0 .488.215.727.631.727.196.007.391-.014.581-.063a.328.328 0 01.416.301l.152 1.569zm20.056 0a.318.318 0 01-.053.262.315.315 0 01-.237.127 4.928 4.928 0 01-1.452.238 3.387 3.387 0 01-2.108-.602 1.952 1.952 0 01-.845-1.644v-2.948a2.212 2.212 0 00-.531-1.544 1.786 1.786 0 00-1.413-.59 1.583 1.583 0 00-1.262.553c-.334.42-.504.946-.48 1.48v4.63c0 .238-.114.364-.353.364h-2.134a.332.332 0 01-.272-.093.327.327 0 01-.094-.271v-4.53a2.31 2.31 0 00-.492-1.543 1.642 1.642 0 00-1.262-.59 1.844 1.844 0 00-1.388.553 2.065 2.065 0 00-.518 1.48v4.63a.33.33 0 01-.094.27.327.327 0 01-.272.094h-2.057c-.24 0-.354-.126-.354-.364v-5.91a.65.65 0 00-.443-.714.657.657 0 00-.301-.026h-.417c-.278 0-.417-.1-.417-.3V63.6a.402.402 0 01.291-.414 3.803 3.803 0 011.363-.226 2.386 2.386 0 012.247 1.154 4.288 4.288 0 013.206-1.154 3.64 3.64 0 012.991 1.33 4.167 4.167 0 013.307-1.33 4.01 4.01 0 012.991 1.142 4.078 4.078 0 011.124 3.023v2.422c0 .477.214.715.618.715.196.009.392-.012.581-.063.261 0 .399.1.416.301l.114 1.569zM38.85 61.63a17.168 17.168 0 016.127-9.386 17.346 17.346 0 0110.642-3.643c3.857 0 7.603 1.282 10.642 3.643a17.168 17.168 0 016.126 9.386h-1.514a12.282 12.282 0 00-7.157 2.17 3.606 3.606 0 01-.379.239h-.177a3.615 3.615 0 01-.378-.239 12.891 12.891 0 00-7.163-2.17c-2.552 0-5.045.755-7.163 2.17a3.615 3.615 0 01-.379.239h-.176a3.606 3.606 0 01-.379-.239 12.283 12.283 0 00-7.157-2.17h-1.514zm29.296 7.867a4.27 4.27 0 012.727-.891h2.032v-4.028h-2.032a8.086 8.086 0 00-4.835 1.531 4.612 4.612 0 01-5.452 0 8.62 8.62 0 00-9.808 0 4.612 4.612 0 01-5.452 0 8.086 8.086 0 00-4.898-1.53h-2.095v4.027h2.032a4.27 4.27 0 012.727.89 8.593 8.593 0 009.794 0 4.296 4.296 0 012.727-.89 4.245 4.245 0 012.726.89 8.619 8.619 0 009.807 0zm0 7.201a4.27 4.27 0 012.727-.89h2.032V71.78h-2.032a8.086 8.086 0 00-4.835 1.53 4.612 4.612 0 01-5.452 0 8.618 8.618 0 00-4.904-1.529 8.618 8.618 0 00-4.904 1.53 4.612 4.612 0 01-5.452 0 8.086 8.086 0 00-4.898-1.53h-2.095v4.027h2.032a4.27 4.27 0 012.727.89 8.593 8.593 0 009.794 0 4.296 4.296 0 012.727-.89 4.245 4.245 0 012.726.89 8.619 8.619 0 009.807 0z" fill="#1E1B1B"/></svg>