<svg width="227" height="129" fill="none" xmlns="http://www.w3.org/2000/svg"><path d="M71.197 54.513h3.807v18.479h-3.807V54.513zm5.939 12.149a6.75 6.75 0 011.125-3.734 6.674 6.674 0 012.996-2.472 6.614 6.614 0 013.855-.376 6.646 6.646 0 013.41 1.848 6.73 6.73 0 011.814 3.448 6.762 6.762 0 01-.394 3.882 6.702 6.702 0 01-2.47 3.005 6.625 6.625 0 01-3.712 1.112 6.53 6.53 0 01-2.552-.497 6.57 6.57 0 01-2.161-1.456 6.63 6.63 0 01-1.432-2.186 6.67 6.67 0 01-.48-2.574zm9.542 0a2.931 2.931 0 00-.524-1.599 2.897 2.897 0 00-1.313-1.04 2.873 2.873 0 00-3.127.68 2.936 2.936 0 00-.594 3.168c.221.529.592.98 1.066 1.297.474.317 1.03.486 1.599.486a2.8 2.8 0 002.081-.866 2.842 2.842 0 00.787-2.126h.025zm18.769-6.33v12.033c0 4.246-3.3 6.05-6.637 6.05a6.304 6.304 0 01-3.41-.681 6.364 6.364 0 01-2.542-2.389l3.21-1.867c.261.529.675.965 1.187 1.25a2.861 2.861 0 001.682.349 2.52 2.52 0 002.055-.681 2.565 2.565 0 00.787-2.03v-1.164a4.486 4.486 0 01-1.641 1.255 4.45 4.45 0 01-2.026.382 6.32 6.32 0 01-4.486-1.873 6.42 6.42 0 01-1.859-4.521 6.42 6.42 0 011.859-4.522 6.32 6.32 0 014.486-1.872 4.452 4.452 0 013.667 1.636V60.41l3.668-.077zm-3.668 6.074a3.08 3.08 0 00-.45-1.738 3.052 3.052 0 00-1.34-1.187 3.025 3.025 0 00-3.36.582 3.09 3.09 0 00-.72 3.359 3.065 3.065 0 001.12 1.398 3.029 3.029 0 001.705.528 2.822 2.822 0 002.171-.79 2.872 2.872 0 00.874-2.152zm5.812.256c0-1.329.391-2.627 1.124-3.731a6.67 6.67 0 012.992-2.473 6.614 6.614 0 013.851-.38 6.647 6.647 0 013.41 1.841 6.728 6.728 0 011.821 3.441 6.76 6.76 0 01-.385 3.88 6.702 6.702 0 01-2.459 3.01 6.624 6.624 0 01-3.705 1.126 6.574 6.574 0 01-4.725-1.948 6.655 6.655 0 01-1.924-4.766zm9.543 0a2.934 2.934 0 00-.525-1.6 2.903 2.903 0 00-1.316-1.04 2.873 2.873 0 00-3.128.686 2.938 2.938 0 00-.586 3.172 2.91 2.91 0 001.072 1.294 2.875 2.875 0 001.602.48 2.795 2.795 0 002.081-.866 2.84 2.84 0 00.787-2.126h.013zm5.52-9.719c0-.45.132-.89.38-1.265a2.267 2.267 0 011.014-.838 2.243 2.243 0 012.462.493 2.294 2.294 0 01.489 2.48 2.27 2.27 0 01-.832 1.023c-.371.25-.808.383-1.254.383a2.275 2.275 0 01-1.59-.674c-.423-.425-.663-1-.669-1.602zm.368 3.389h3.807v12.66h-3.807v-12.66zm20.1 6.33a6.42 6.42 0 01-1.64 4.626 6.31 6.31 0 01-4.413 2.088 4.69 4.69 0 01-3.807-1.548v6.254h-3.806v-17.75h3.806v1.19a4.68 4.68 0 013.807-1.535 6.3 6.3 0 012.404.596 6.348 6.348 0 011.995 1.478 6.427 6.427 0 011.654 4.601zm-3.806 0a3.031 3.031 0 00-.543-1.657 2.995 2.995 0 00-1.361-1.077 2.972 2.972 0 00-1.725-.139 2.988 2.988 0 00-1.514.847 3.038 3.038 0 00-.607 3.283 3.01 3.01 0 001.108 1.34c.493.327 1.07.5 1.659.498a2.853 2.853 0 002.179-.874 2.898 2.898 0 00.804-2.221zm15.392 2.532c0 2.916-2.538 4.156-5.228 4.156a5.475 5.475 0 01-3.163-.673 5.534 5.534 0 01-2.243-2.345l3.274-1.867c.13.456.411.854.797 1.126a2.04 2.04 0 001.322.37c.901 0 1.358-.281 1.358-.793 0-1.393-6.18-.652-6.18-5.038 0-2.762 2.31-4.143 4.924-4.143a5.473 5.473 0 012.857.657 5.53 5.53 0 012.117 2.041l-3.274 1.74a1.846 1.846 0 00-1.687-1.113c-.66 0-1.054.255-1.054.703 0 1.458 6.18.499 6.18 5.18zm13.794-8.862v12.66h-3.807v-1.19a4.331 4.331 0 01-1.603 1.217 4.297 4.297 0 01-1.975.357c-2.538 0-4.708-1.829-4.708-5.243v-7.801h3.807v7.225a2.103 2.103 0 001.313 2.162c.28.11.581.158.882.14 1.37 0 2.335-.818 2.335-2.557v-6.97h3.756zm21.572 4.885v7.775h-3.807v-7.443c0-1.278-.596-2.071-1.802-2.071-1.205 0-1.967.882-1.967 2.378v7.136h-3.806v-7.443c0-1.278-.597-2.071-1.802-2.071-1.206 0-1.967.882-1.967 2.378v7.136h-3.807v-12.66h3.807v1.164a3.889 3.889 0 011.498-1.185 3.856 3.856 0 011.877-.324 3.698 3.698 0 011.862.393 3.73 3.73 0 011.425 1.27 4.14 4.14 0 011.608-1.305 4.112 4.112 0 012.034-.358c2.969 0 4.847 2.071 4.847 5.23zM48.52 51.188v-5.434H31.516v37.34H48.52V77.66a13.083 13.083 0 01-9.287-3.877 13.288 13.288 0 01-3.847-9.359c0-3.51 1.384-6.877 3.847-9.359a13.083 13.083 0 019.287-3.877zm0 0V77.66c3.484 0 6.824-1.394 9.287-3.876a13.287 13.287 0 003.847-9.359c0-3.51-1.384-6.877-3.847-9.359a13.083 13.083 0 00-9.287-3.877zm144.752 9.067a2.803 2.803 0 002.792-2.813 2.803 2.803 0 00-2.792-2.814c-1.541 0-2.791 1.26-2.791 2.814 0 1.553 1.25 2.813 2.791 2.813z" fill="#1E1B1B"/></svg>