<svg width="225" height="127" fill="none" xmlns="http://www.w3.org/2000/svg"><path d="M52.28 61.48a4.634 4.634 0 00-1.32 3.71l-.024-.023a5.52 5.52 0 01-1.586 4.353 5.481 5.481 0 01-4.338 1.593l.022.022a4.63 4.63 0 00-2.735.595 4.653 4.653 0 00-1.897 2.065 4.674 4.674 0 00.92 5.275 4.636 4.636 0 005.258.92 4.649 4.649 0 002.056-1.906c.473-.833.68-1.791.59-2.746l.024.023a5.52 5.52 0 011.587-4.354 5.48 5.48 0 014.338-1.592l-.024-.023a4.619 4.619 0 004.087-1.795 4.66 4.66 0 00-.618-6.333 4.628 4.628 0 00-4.357-.966c-.748.22-1.43.627-1.98 1.181h-.004zm-9.312 6.669l-.024-.023a4.57 4.57 0 003.699-1.323 4.602 4.602 0 001.32-3.711l.025.023a5.52 5.52 0 011.586-4.354 5.482 5.482 0 014.338-1.592l-.024-.023a4.629 4.629 0 002.736-.593 4.652 4.652 0 001.9-2.063 4.673 4.673 0 00-.919-5.277 4.628 4.628 0 00-5.258-.922 4.65 4.65 0 00-2.056 1.906 4.673 4.673 0 00-.59 2.746l-.023-.024a5.519 5.519 0 01-1.586 4.354 5.48 5.48 0 01-4.34 1.592l.024.024a4.568 4.568 0 00-3.7 1.323 4.6 4.6 0 00-1.32 3.71l-.023-.022a5.523 5.523 0 01-1.587 4.353 5.483 5.483 0 01-4.338 1.593l.023.023a4.63 4.63 0 00-2.736.593 4.652 4.652 0 00-1.9 2.063 4.674 4.674 0 00.92 5.277 4.637 4.637 0 005.257.922 4.65 4.65 0 002.056-1.906c.474-.833.68-1.792.591-2.746l.024.023a5.52 5.52 0 011.587-4.354 5.48 5.48 0 014.338-1.592zm-8.459-2.543a4.628 4.628 0 001.319-3.71l.024.023a5.521 5.521 0 011.587-4.355 5.48 5.48 0 014.34-1.591l-.024-.023c.95.09 1.906-.118 2.735-.593a4.652 4.652 0 001.898-2.063 4.673 4.673 0 00-.918-5.275 4.626 4.626 0 00-5.256-.922 4.647 4.647 0 00-2.056 1.905 4.67 4.67 0 00-.59 2.745l-.024-.023a5.52 5.52 0 01-1.586 4.354 5.48 5.48 0 01-4.338 1.592l.022.023a4.618 4.618 0 00-4.086 1.797 4.658 4.658 0 00-.682 4.425 4.653 4.653 0 001.3 1.907 4.628 4.628 0 004.358.965 4.63 4.63 0 001.98-1.18h-.003zm39.099-12.634h3.749V71.28h-3.75V52.972zM79.48 65.01a6.664 6.664 0 011.103-3.7 6.628 6.628 0 012.967-2.459 6.6 6.6 0 017.226 1.424 6.668 6.668 0 011.448 7.247 6.641 6.641 0 01-2.44 2.987 6.606 6.606 0 01-3.681 1.122 6.527 6.527 0 01-4.696-1.915 6.574 6.574 0 01-1.927-4.705zm9.496 0a2.892 2.892 0 00-1.829-2.608 2.866 2.866 0 00-3.106.677 2.89 2.89 0 00.472 4.417c.471.313 1.024.48 1.59.48a2.794 2.794 0 002.084-.85 2.815 2.815 0 00.79-2.115zm18.69-6.27v11.908c0 4.213-3.274 5.994-6.598 5.994a6.37 6.37 0 01-3.386-.685 6.4 6.4 0 01-2.536-2.355l3.198-1.856a2.863 2.863 0 002.849 1.58 2.48 2.48 0 002.054-.661 2.498 2.498 0 00.77-2.022v-1.147a4.439 4.439 0 01-3.649 1.63 6.34 6.34 0 01-4.36-1.934 6.385 6.385 0 01-1.79-4.435c0-1.656.642-3.246 1.79-4.435a6.34 6.34 0 014.36-1.935 4.439 4.439 0 013.649 1.63v-1.279l3.649.003zm-3.648 6.019a3.037 3.037 0 00-1.781-2.898 3.019 3.019 0 00-3.344.578 3.044 3.044 0 00-.711 3.33 3.038 3.038 0 001.116 1.384 3.02 3.02 0 001.697.52 2.816 2.816 0 002.155-.785 2.843 2.843 0 00.868-2.13zm5.771.251a6.662 6.662 0 011.103-3.7 6.63 6.63 0 012.967-2.459 6.599 6.599 0 017.226 1.424 6.67 6.67 0 011.448 7.247 6.649 6.649 0 01-2.439 2.987 6.606 6.606 0 01-3.682 1.122 6.524 6.524 0 01-4.696-1.915 6.57 6.57 0 01-1.927-4.705zm9.497 0a2.88 2.88 0 00-1.83-2.609 2.863 2.863 0 00-3.106.678 2.89 2.89 0 00.472 4.417 2.87 2.87 0 001.59.48 2.796 2.796 0 002.699-1.825c.136-.364.196-.752.175-1.14zm5.497-9.63a2.264 2.264 0 011.388-2.086 2.242 2.242 0 012.451.49 2.259 2.259 0 01.488 2.46 2.245 2.245 0 01-2.078 1.394 2.269 2.269 0 01-1.584-.669 2.287 2.287 0 01-.665-1.59zm.378 3.36h3.75v12.541h-3.755l.005-12.54zm19.937 6.27a6.301 6.301 0 01-3.588 6.025 6.26 6.26 0 01-2.385.596 4.678 4.678 0 01-3.722-1.53v6.195h-3.749V58.74h3.749v1.178a4.695 4.695 0 013.722-1.528 6.254 6.254 0 014.359 2.063 6.304 6.304 0 011.614 4.558zm-3.749 0a2.983 2.983 0 00-1.886-2.703 2.965 2.965 0 00-3.216.695 2.993 2.993 0 00.485 4.57c.488.325 1.06.498 1.645.498a2.845 2.845 0 002.169-.861 2.868 2.868 0 00.803-2.198zm15.317 2.508c0 2.884-2.498 4.113-5.197 4.113a5.456 5.456 0 01-3.143-.665 5.486 5.486 0 01-2.23-2.32l3.248-1.855a2.057 2.057 0 002.12 1.48c.899 0 1.35-.277 1.35-.777 0-1.381-6.149-.653-6.149-4.991 0-2.735 2.3-4.113 4.899-4.113a5.448 5.448 0 012.801.673 5.475 5.475 0 012.071 2.01l-3.198 1.73a1.822 1.822 0 00-1.674-1.103c-.65 0-1.05.253-1.05.701.005 1.43 6.152.477 6.152 5.117zm13.694-8.778v12.541h-3.749v-1.179a4.257 4.257 0 01-3.572 1.53c-2.524 0-4.67-1.805-4.67-5.193V58.74h3.749v7.147a2.06 2.06 0 00.56 1.645 2.058 2.058 0 001.613.635c1.375 0 2.324-.802 2.324-2.583v-6.84l3.745-.004zm21.495 4.84v7.7h-3.749v-7.374c0-1.254-.599-2.056-1.798-2.056-1.25 0-1.95.878-1.95 2.358v7.072h-3.748v-7.374c0-1.254-.6-2.056-1.8-2.056-1.249 0-1.949.878-1.949 2.358v7.072h-3.748V58.74h3.748v1.152a3.825 3.825 0 013.349-1.504 3.71 3.71 0 013.273 1.655 4.115 4.115 0 013.624-1.655c2.869.002 4.748 2.058 4.748 5.193zm3.171-4.917a2.786 2.786 0 002.781-2.791 2.786 2.786 0 00-2.781-2.792 2.787 2.787 0 00-2.782 2.791 2.787 2.787 0 002.782 2.792z" fill="#1E1B1B"/></svg>