<svg width="227" height="128" fill="none" xmlns="http://www.w3.org/2000/svg"><path d="M71.197 54.03h3.807v18.478h-3.807V54.029zm5.939 12.147a6.75 6.75 0 011.125-3.733 6.673 6.673 0 012.996-2.473 6.614 6.614 0 013.855-.375 6.646 6.646 0 013.41 1.848 6.73 6.73 0 011.814 3.447 6.762 6.762 0 01-.394 3.882 6.701 6.701 0 01-2.47 3.005 6.625 6.625 0 01-3.712 1.113 6.528 6.528 0 01-2.552-.498 6.57 6.57 0 01-2.161-1.455 6.63 6.63 0 01-1.432-2.186 6.67 6.67 0 01-.48-2.575zm9.542 0a2.931 2.931 0 00-.524-1.598 2.897 2.897 0 00-1.313-1.04 2.873 2.873 0 00-3.127.68 2.936 2.936 0 00-.594 3.168c.221.528.592.98 1.066 1.296.474.317 1.03.487 1.599.487a2.8 2.8 0 002.081-.866 2.842 2.842 0 00.787-2.127h.025zm18.769-6.329V71.88c0 4.246-3.3 6.049-6.637 6.049a6.302 6.302 0 01-3.41-.68 6.364 6.364 0 01-2.542-2.39l3.21-1.866c.261.528.675.964 1.187 1.25a2.862 2.862 0 001.682.348 2.52 2.52 0 002.055-.68 2.563 2.563 0 00.787-2.03v-1.165a4.453 4.453 0 01-3.667 1.637 6.32 6.32 0 01-4.487-1.873 6.42 6.42 0 01-1.858-4.52 6.42 6.42 0 011.859-4.522 6.32 6.32 0 014.486-1.873 4.453 4.453 0 013.667 1.637v-1.279l3.668-.076zm-3.668 6.074a3.08 3.08 0 00-.45-1.739 3.052 3.052 0 00-1.34-1.186 3.025 3.025 0 00-3.36.581 3.091 3.091 0 00-.72 3.359 3.064 3.064 0 001.12 1.399 3.029 3.029 0 001.705.527 2.822 2.822 0 002.171-.789 2.872 2.872 0 00.874-2.152zm5.812.255c0-1.328.391-2.626 1.124-3.73a6.671 6.671 0 012.992-2.473 6.614 6.614 0 013.851-.38c1.292.26 2.479.9 3.41 1.84a6.728 6.728 0 011.821 3.442 6.76 6.76 0 01-.385 3.88 6.702 6.702 0 01-2.459 3.01 6.625 6.625 0 01-3.705 1.125 6.576 6.576 0 01-4.725-1.948 6.656 6.656 0 01-1.924-4.766zm9.543 0a2.935 2.935 0 00-.525-1.6 2.904 2.904 0 00-1.316-1.039 2.873 2.873 0 00-3.128.686 2.938 2.938 0 00-.586 3.172 2.91 2.91 0 001.072 1.294 2.875 2.875 0 001.602.48 2.795 2.795 0 002.081-.866 2.84 2.84 0 00.787-2.127h.013zm5.52-9.718c0-.45.132-.89.38-1.265a2.267 2.267 0 011.014-.838 2.244 2.244 0 012.462.493 2.294 2.294 0 01.489 2.48 2.27 2.27 0 01-.832 1.022c-.371.25-.808.384-1.254.384a2.275 2.275 0 01-1.59-.674c-.423-.426-.663-1-.669-1.602zm.368 3.388h3.807v12.66h-3.807v-12.66zm20.1 6.331a6.423 6.423 0 01-1.64 4.626 6.312 6.312 0 01-4.413 2.088 4.69 4.69 0 01-2.079-.335 4.73 4.73 0 01-1.728-1.213v6.253h-3.806v-17.75h3.806v1.19a4.712 4.712 0 011.729-1.207 4.677 4.677 0 012.078-.328 6.345 6.345 0 014.399 2.074 6.428 6.428 0 011.654 4.601zm-3.806 0a3.031 3.031 0 00-.543-1.657 2.995 2.995 0 00-1.361-1.077 2.972 2.972 0 00-1.725-.139 2.988 2.988 0 00-1.514.847 3.037 3.037 0 00-.607 3.283 3.01 3.01 0 001.108 1.34c.493.327 1.07.5 1.659.497a2.851 2.851 0 002.179-.874 2.898 2.898 0 00.804-2.22zm15.392 2.532c0 2.915-2.538 4.156-5.228 4.156a5.475 5.475 0 01-3.163-.673 5.534 5.534 0 01-2.243-2.345l3.274-1.867c.13.456.411.854.797 1.126.386.272.852.403 1.322.37.901 0 1.358-.281 1.358-.793 0-1.394-6.18-.652-6.18-5.038 0-2.763 2.31-4.144 4.924-4.144a5.473 5.473 0 012.857.658 5.53 5.53 0 012.117 2.04l-3.274 1.74a1.846 1.846 0 00-1.687-1.113c-.66 0-1.054.256-1.054.704 0 1.457 6.18.498 6.18 5.179zm13.794-8.862v12.66h-3.807v-1.19a4.33 4.33 0 01-1.603 1.217 4.297 4.297 0 01-1.975.356c-2.538 0-4.708-1.828-4.708-5.243v-7.8h3.807v7.225a2.103 2.103 0 001.313 2.162c.28.11.581.158.882.14 1.37 0 2.335-.819 2.335-2.558v-6.97h3.756zm21.572 4.885v7.775h-3.807v-7.443c0-1.279-.596-2.072-1.802-2.072-1.205 0-1.967.883-1.967 2.379v7.136h-3.806v-7.443c0-1.279-.597-2.072-1.802-2.072-1.206 0-1.967.883-1.967 2.379v7.136h-3.807v-12.66h3.807v1.163a3.889 3.889 0 011.498-1.184 3.856 3.856 0 011.877-.325 3.697 3.697 0 011.862.393 3.73 3.73 0 011.425 1.27 4.139 4.139 0 011.608-1.304 4.11 4.11 0 012.034-.359c2.969 0 4.847 2.072 4.847 5.23zM48.52 50.704V45.27H31.516v37.34H48.52v-5.435a13.083 13.083 0 01-9.287-3.876 13.288 13.288 0 01-3.847-9.36c0-3.51 1.384-6.876 3.847-9.358a13.083 13.083 0 019.287-3.877zm0 0v26.471c3.484 0 6.824-1.394 9.287-3.876a13.287 13.287 0 003.847-9.36c0-3.51-1.384-6.876-3.847-9.358a13.083 13.083 0 00-9.287-3.877zm144.752 9.066a2.803 2.803 0 002.792-2.813 2.803 2.803 0 00-2.792-2.813c-1.541 0-2.791 1.26-2.791 2.813 0 1.554 1.25 2.814 2.791 2.814z" fill="#1E1B1B"/></svg>