<svg width="25" height="24" fill="none" xmlns="http://www.w3.org/2000/svg"><g clip-path="url(#clip0_482_1267)"><path d="M8.217 21.75c9.054 0 14.008-7.504 14.008-14.008 0-.211-.005-.427-.014-.638a10 10 0 002.456-2.549c-.898.4-1.85.66-2.827.773a4.95 4.95 0 002.166-2.722A9.897 9.897 0 0120.88 3.8a4.93 4.93 0 00-8.394 4.49A13.984 13.984 0 012.339 3.15a4.93 4.93 0 001.524 6.57 4.93 4.93 0 01-2.23-.614v.06a4.922 4.922 0 003.95 4.829 4.893 4.893 0 01-2.222.084 4.934 4.934 0 004.598 3.422 9.875 9.875 0 01-7.292 2.037 13.969 13.969 0 007.55 2.212z" fill="#fff"/></g><defs><clipPath id="clip0_482_1267"><path fill="#fff" transform="translate(.667)" d="M0 0h24v24H0z"/></clipPath></defs></svg>